<svg aria-hidden="true" style="position:absolute;width:0;height:0" overflow="hidden"><defs><symbol id="icon-fire" viewBox="0 0 23 32"><path d="M21.909 16.593c-.285-.636-.675-1.261-1.248-1.984-1.442-1.813-1.882-5.856-1.887-5.895a.49.49 0 00-.334-.411l-.003-.001a.493.493 0 00-.518.141c-1.721 1.924-.997 4.896-.606 6.084.107.325.224.708.308 1.097.635 3.136-.592 4.557-.88 4.843-.279.078-.469.039-.645-.149-.607-.665-.807-2.842-.523-5.678a5.827 5.827 0 00-.044-1.615l.005.034c-.598-3.486-2.791-5.723-3.349-6.507-1.536-2.269-1.692-6.046-1.696-6.08A.488.488 0 009.725.09l.002-.001C7.165 1.831 7.385 6.025 7.742 8.366c.083.544.244 1.095.523 1.794.992 2.496-.195 5.722-.205 5.749-.011.03-.02.053-.025.083-.151.796-.405 1.27-.69 1.27a.332.332 0 01-.095-.016l.002.001c-.347-.073-.528-.441-.533-.761-.019-4.135-4.17-5.527-4.213-5.542s-.096-.023-.149-.023a.49.49 0 00-.369.169l-.001.001a.474.474 0 00-.067.536l-.001-.003c.049.101.205.547.098 2.123a18.128 18.128 0 01-.803 4.288l.035-.128c-.988 3.221-.832 6.271-.821 6.416.759 8.258 12.635 9.705 19.683 5.053.772-.51 1.403-1.091 1.867-1.731 2.602-3.588 1.071-8.461-.068-11.051zM3.843 24.48l.001.025a.484.484 0 01-.459.484h-.034a.486.486 0 01-.485-.454v-.001c-.044-.707-.034-1.45.019-2.254a.494.494 0 01.524-.451h-.001a.488.488 0 01.456.487l-.001.032v-.001a15.615 15.615 0 00-.019 2.133zm.239-4.295a.485.485 0 01-.482.427h-.002c-.02 0-.039 0-.064-.005a.49.49 0 01-.425-.54v.002l.235-1.872a.495.495 0 01.551-.421h-.002a.486.486 0 01.425.543l-.235 1.867z"/></symbol><symbol id="icon-menu" viewBox="0 0 48 32"><path stroke-width="4.571" d="M0 2.286h46.857M0 16h46.857M0 29.714h46.857"/></symbol><symbol id="icon-cross" viewBox="0 0 34 32"><path stroke-width="4" d="M2.004 30.496L30.996 1.504m0 28.992L2.004 1.504"/></symbol><symbol id="icon-program" viewBox="0 0 31 32"><path d="M7.046 26.005h17.006c.085-1.939-.054-5.157-1.246-6.689l-.043-.055-2.606-1.308c.056-.19.084-.366.096-.494a.907.907 0 00-.066-.437l.002.006c-.43-1.029-1.339-1.57-1.84-1.801.152-.307.251-.637.298-.974a.838.838 0 00.584-.598l.001-.006.305-1.235a.839.839 0 00-.281-.847l-.002-.001c.857-1.947-.579-3.784-.657-3.881-1.555-1.682-3.52-1.367-3.624-1.349-2.836.593-3.93 2.767-3.312 5.316a.836.836 0 00-.192.762l.306 1.237c.074.297.3.521.581.601.09.628.352 1.183.735 1.63l-.004-.004v.979c-4.069 2.084-1.491.754-4.752 2.404-.006.03-1.53 1.65-1.303 6.45l.014.293zm16.415-.615h-2.799v-1.175l1.851-4.238c.927 1.539.962 4.478.947 5.413zm-3.82-7.983c-.108 1.24-.788.866-1.209 1.821-.33-.363-.429-.799-.34-1.265.16-.856-.363-1.11-.234-2.01l.02-.021v-.003a6.52 6.52 0 00.144-.174c1.107.483 1.641 1.381 1.619 1.651zm-5.94-.975a3.128 3.128 0 001.805.568c.646 0 1.247-.194 1.747-.528l-.012.007c.071.707.347.849.249 1.369a2.377 2.377 0 00-.034.285l-1.906 2.149-2.437-2.747.588-.307v-.796zm-.766-2.629V10.52c.297-.549.701-.946 1.204-1.185 1.346.762 2.895 1.898 3.934 3.043-.001 1.457.004 1.46-.006 1.58l-.001.008a2.57 2.57 0 01-2.564 2.419 2.577 2.577 0 01-2.568-2.567v-.015.001zm-.38 4.03l2.995 3.376 2.01-2.266a2 2 0 00.184.378l-2.194 2.744-3.273-4.092.278-.14zm6.13-4.526v-.951l.229-.262c.013.482.065-.087-.229 1.213zm-3.598-6.365c.122.008 1.755-.249 3.047 1.145.051.064 1.102 1.418.68 2.9-.144-.66-.396-1.505-.794-1.908l-.435.434c.393.398.651 1.611.75 2.239-1.803-1.887-4.13-3.082-4.162-3.102-.117.073-1.101.26-1.816 1.649l-.034.067v1.021l-.09.001c-.454-2.193.416-3.936 2.856-4.447zm-2.92 5.08l.155.627v.658l-.257-1.041c-.038-.155.077-.213.102-.245zm-.451 6.232l3.833 4.794 2.594-3.244c.282.252.418.288 1.016.596l-.202-.685c-.051-.174.151-.452.274-.58.275-.151.501-.361.667-.614l.004-.007 2.116 1.062-1.969 4.508v1.304h-9.001v-1.305l-1.97-4.507 2.637-1.324zm-3.132 1.724l1.851 4.236v1.176H7.636c-.014-.935.02-3.872.947-5.412z"/><path stroke-width="1.016" d="M30.387 4.945V.762H.508v30.476h29.879v-4.183"/></symbol><symbol id="icon-method" viewBox="0 0 31 32"><path d="M24.717 5.25H14.469a1.21 1.21 0 00-1.209 1.21v4.241l-7.613 3.196a.249.249 0 00-.034.441l.001.001.971.581v6.192a1.12 1.12 0 00-.869 1.089v.597c0 .137.111.248.248.248h1.739a.248.248 0 00.248-.248v-.597a1.12 1.12 0 00-.862-1.087l-.008-.002v-5.896l.768.459c-.023.177-.003-.308-.011 2.883 0 1.049 2.687 1.611 5.421 1.643v4.832c0 .667.541 1.208 1.208 1.208H24.716a1.21 1.21 0 001.209-1.209c0 .034-.002-1.023 0-18.573 0-.658-.544-1.21-1.209-1.21zM7.456 22.201v.349H6.213v-.349a.622.622 0 111.243 0zm17.261 3.544H14.469a.712.712 0 01-.713-.71V23.36h11.671v1.676a.718.718 0 01-.711.711zm.711-2.883H13.756v-2.659c1.335-.015 5.425-.309 5.425-1.645-.002-2.005.003-2.818-.007-2.887l2.226-1.334a.249.249 0 00-.03-.44l-.002-.001-7.612-3.195V8.63h11.672v14.231zm-11.92-5.949c-1.376 0-4.023.178-5.173.929.007-2.297-.08-2.148.203-2.343.715-.526 2.758-.894 4.97-.894.965 0 5.176.266 5.176 1.157v2.08c-1.161-.758-3.795-.929-5.176-.929zm.248-10.453c0-.393.32-.713.713-.713h10.248c.393 0 .711.324.711.713v1.675H13.757V6.46zm-.249 4.676l7.218 3.029-1.788 1.07c-.951-.943-4.096-1.126-5.429-1.126-1.335 0-4.48.183-5.429 1.126l-1.788-1.07 7.218-3.029zm-5.172 7.422c0-.401 1.777-1.15 5.173-1.15 3.398 0 5.176.749 5.176 1.15s-1.778 1.15-5.176 1.15c-3.397 0-5.173-.749-5.173-1.15z"/><path d="M19.593 23.732a.821.821 0 000 1.64.821.821 0 000-1.64zm0 1.145h-.012a.325.325 0 110-.65h.014-.001a.325.325 0 01-.001.65h-.001zm.945-18.184h-1.892v.496h1.892v-.496z"/><path stroke-width="1.016" d="M30.387 4.945V.762H.508v30.476h29.879v-4.183"/></symbol><symbol id="icon-warranty" viewBox="0 0 31 32"><path d="M6.947 14.567c0 .227-.344.227-.344 0a8.725 8.725 0 0117.45 0c0 .227-.342.227-.342 0 0-3.257-5.351-3.259-5.351 0 0 .227-.352.227-.352 0 0-3.248-5.359-3.248-5.359 0 0 .227-.352.227-.352 0 0-3.242-5.349-3.265-5.349 0zm5.38-1.265c.093-1.874.388-3.556.816-4.839.342-1.019.775-1.794 1.265-2.228a8.386 8.386 0 00-7.322 6.807c1.267-1.827 4.191-1.681 5.242.259zm5.654-.084c-.095-1.803-.381-3.415-.793-4.645-1.063-3.182-2.656-3.182-3.72 0-.412 1.23-.696 2.842-.793 4.645 1.143-1.942 4.163-1.942 5.306 0zm5.59-.176a8.382 8.382 0 00-7.322-6.807c.493.434.923 1.209 1.265 2.228.429 1.284.723 2.964.816 4.839 1.056-1.95 3.99-2.066 5.242-.26zm-9.388 5.516v-1.771c-.319.212-.57.54-.57.94 0 .389.255.647.57.832zm.344.551c-.612-.28-1.257-.608-1.257-1.382 0-.799.608-1.199 1.257-1.498v2.88zm1.946 2.123v1.792c.324-.214.577-.544.577-.943 0-.394-.26-.659-.577-.849zm-.341-.552c.614.284 1.263.622 1.263 1.401 0 .801-.612 1.201-1.263 1.497V20.68z"/><path d="M16.473 14.771c1.409.325 2.857 1.38 2.857 2.955 0 1.35-2.281 1.3-2.281 0 0-.401-.253-.731-.576-.943v2.521c1.304.427 2.861 1.191 2.861 2.776 0 1.578-1.448 2.631-2.861 2.954-.006 1.502-2.286 1.5-2.29-.002-.803-.185-1.501-.56-2.006-1.056-.529-.523-.842-1.18-.842-1.895 0-1.329 2.278-1.329 2.278 0 0 .397.251.725.57.937v-2.519c-1.294-.418-2.859-1.205-2.859-2.776 0-1.578 1.448-2.63 2.859-2.954.006-1.501 2.286-1.499 2.291.002zm-1.946.003v.274c-1.341.266-2.861 1.125-2.861 2.673 0 1.489 1.668 2.157 2.861 2.525v3.328c-.645-.295-1.257-.692-1.257-1.495 0-.877-1.594-.877-1.594 0 0 .62.276 1.193.742 1.65.591.585 1.308.863 2.109 1.022v.276c0 1.056 1.605 1.056 1.605 0v-.274c1.345-.267 2.859-1.126 2.859-2.673 0-1.503-1.665-2.15-2.859-2.527v-3.326c.647.295 1.263.692 1.263 1.499 0 .855 1.592.89 1.592 0 0-1.547-1.512-2.408-2.855-2.675v-.276c0-1.056-1.605-1.056-1.605 0z"/><path stroke-width="1.016" d="M30.387 4.945V.762H.508v30.476h29.879v-4.183"/></symbol><symbol id="icon-list" viewBox="0 0 31 32"><path d="M30.151 4.961l-.001-.003a.225.225 0 00-.025-.046l.001.001-.003-.003a.278.278 0 00-.033-.042L25.283.062a.237.237 0 00-.039-.032l-.001-.001-.01-.005a.274.274 0 00-.034-.019l-.002-.001L25.186 0a.281.281 0 00-.099-.02l-.005-.001H3.911a.283.283 0 00-.283.284v29.311a.25.25 0 00.005.055l.007.023.01.03c.003.009.009.017.013.025.004.007.007.016.013.023a.26.26 0 00.033.04l2.167 2.167a.283.283 0 00.402 0l1.965-1.964 1.964 1.964a.282.282 0 00.402 0l1.964-1.963 1.964 1.963a.285.285 0 00.402 0l1.963-1.963 1.963 1.963a.283.283 0 00.402 0l1.965-1.964 1.964 1.964a.282.282 0 00.402 0l1.963-1.963 1.965 1.963a.283.283 0 00.402 0l2.165-2.165.011-.013.024-.029c.007-.009.011-.02.016-.03.003-.007.007-.012.009-.019.007-.013.009-.027.013-.04l.004-.013a.33.33 0 00.007-.057V5.068a.294.294 0 00-.024-.111l.001.002zM25.367.949l3.836 3.835h-3.836V.949zm4.237 28.507l-1.88 1.88-1.965-1.964a.283.283 0 00-.402 0l-1.963 1.964-1.964-1.964a.283.283 0 00-.402 0l-1.965 1.964-1.963-1.964c-.051-.052-.122-.084-.201-.084s-.15.032-.201.084l-1.964 1.964-1.964-1.964a.287.287 0 00-.402 0l-1.963 1.964-1.964-1.964a.287.287 0 00-.402 0l-1.964 1.964-1.88-1.88V.547h20.603v4.522c0 .157.127.284.284.284h4.521v24.103z"/><path d="M6.313 3.234h9.303a.284.284 0 100-.568H6.313a.284.284 0 100 .568zm0 1.757h14.92a.284.284 0 100-.568H6.313a.284.284 0 100 .568zm-.284 1.577v9.199c0 .157.127.284.285.284h21.172a.284.284 0 00.284-.284V6.568a.284.284 0 00-.284-.284H6.314h-.001a.284.284 0 00-.284.284zm6.279.284h14.893v2.445H12.308V6.852zm0 3.013h14.893v2.444H12.308V9.865zm0 3.012h14.893v2.605H12.308v-2.605zm-5.71-6.025h5.142v2.445H6.598V6.852zm0 3.013h5.142v2.444H6.598V9.865zm0 3.012h5.142v2.605H6.598v-2.605zm20.888 4.452H6.314h-.001a.284.284 0 00-.284.284v9.198a.284.284 0 10.568 0v-2.889h5.143v2.889a.284.284 0 10.568 0v-2.889h14.893v2.889a.284.284 0 10.568 0v-9.198-.001a.283.283 0 00-.283-.283h-.001zM11.74 23.353H6.598V20.91h5.142v2.443zm0-3.012H6.598v-2.444h5.142v2.444zm15.461 3.012H12.308V20.91h14.893v2.443zm0-3.012H12.308v-2.444h14.893v2.444zM2.281-.021a.284.284 0 00-.284.284v29.311a.284.284 0 10.568 0V.263a.284.284 0 00-.284-.284zm-1.563 0a.284.284 0 00-.284.284v29.311a.284.284 0 10.568 0V.263a.284.284 0 00-.284-.284z"/></symbol><symbol id="icon-online" viewBox="0 0 33 32"><path d="M30.175-.128H14.429a1.861 1.861 0 00-1.859 1.859V8.25L.871 13.159a.382.382 0 00-.05.678l.002.001 1.492.893v9.516A1.722 1.722 0 00.98 25.92v.917c0 .211.17.381.381.381h2.671a.38.38 0 00.381-.381v-.917a1.72 1.72 0 00-1.337-1.673v-9.06l1.18.706c-.037.272-.005-.474-.017 4.43 0 1.612 4.129 2.476 8.33 2.525v7.425c0 1.025.832 1.856 1.857 1.856H30.172a1.858 1.858 0 001.857-1.857c0 .051-.002-1.573 0-28.539a1.87 1.87 0 00-1.856-1.859zM3.651 25.918v.537H1.743v-.537a.955.955 0 111.909 0zm26.524 5.446H14.429c-.378 0-.711-.191-.909-.481a1.081 1.081 0 01-.187-.61V27.697h17.934v2.575c0 .596-.497 1.092-1.092 1.092zm1.092-4.429H13.332v-4.086c2.051-.023 8.335-.475 8.335-2.527-.003-3.08.005-4.33-.01-4.436l3.421-2.049a.382.382 0 00-.046-.676l-.002-.001-11.698-4.91V5.068h17.935v21.868zm-18.316-9.143c-2.113 0-6.182.273-7.949 1.427.011-3.53-.123-3.3.312-3.6 1.098-.808 4.239-1.373 7.637-1.373 1.482 0 7.954.407 7.954 1.777v3.196c-1.784-1.165-5.832-1.428-7.954-1.428zm.381-16.061A1.096 1.096 0 0114.428.636h15.745c.605 0 1.093.498 1.093 1.095v2.574H13.332V1.731zm-.381 7.184l11.09 4.655-2.748 1.644c-1.461-1.449-6.294-1.729-8.342-1.729-2.051 0-6.884.281-8.342 1.729L1.86 13.57l11.091-4.655zM5.002 20.321c0-.616 2.73-1.768 7.949-1.768 5.222 0 7.954 1.151 7.954 1.767s-2.732 1.768-7.954 1.768c-5.219 0-7.949-1.151-7.949-1.768z"/><path d="M22.301 28.271a1.261 1.261 0 101.26 1.26c0-.694-.565-1.26-1.26-1.26zm0 1.759a.5.5 0 01-.001-.996h.001a.498.498 0 010 .996zm1.454-27.94h-2.907v.762h2.907V2.09z"/></symbol><symbol id="icon-book" viewBox="0 0 44 32"><path d="M19.6 4.608H5.96v1.021H19.6V4.608zm0 3.808H8.003v1.021H19.6V8.416zm0 3.808H5.96v1.021H19.6v-1.021zm0 3.808H8.003v1.021H19.6v-1.021zm0 3.808H5.96v1.021H19.6V19.84zm0 3.808H8.003v1.021H19.6v-1.021zm18.723-19.04h-13.64v1.021h13.64V4.608zm-2.042 3.808H24.684v1.021H36.28V8.416zm2.042 3.808h-13.64v1.021h13.64v-1.021zm-2.042 3.808H24.684v1.021H36.28v-1.021zm2.042 3.808h-13.64v1.021h13.64V19.84zm-2.042 3.808H24.684v1.021H36.28v-1.021z"/><path d="M43.249 3.445h-1.873V.633a.511.511 0 00-.511-.511H25.582c-1.469 0-2.75.802-3.43 1.991l-.01.019A3.955 3.955 0 0018.701.121H3.419a.511.511 0 00-.511.511v2.812H1.035a.511.511 0 00-.511.511v27.411c0 .282.229.511.511.511h42.213a.51.51 0 00.51-.511V3.955a.511.511 0 00-.511-.511zM25.6 1.144h14.754v27.349H24.511c-.703 0-1.405.296-1.859.68V4.085v-.009a2.932 2.932 0 012.932-2.932h.016-.001zm-21.671 0h14.773a2.924 2.924 0 012.922 2.824v.005c.001.022.003.091.007.113v25.087a2.987 2.987 0 00-1.852-.678H3.93V1.145zM1.546 4.467h1.362v24.538c0 .282.229.511.511.511h16.36c.779 0 1.531.511 1.772 1.341H1.546V4.468zm41.191 26.389H22.733a1.85 1.85 0 011.775-1.341h16.357a.511.511 0 00.511-.511V4.466h1.361v26.389z"/></symbol><symbol id="icon-support" viewBox="0 0 33 32"><path d="M1.993 12.558v2.831c0 .152.069.295.189.39a11.027 11.027 0 006.836 2.362c.741 0 1.482-.077 2.207-.224a11.826 11.826 0 004.872 1.032h.019-.001c1.707 0 3.351-.349 4.89-1.032 3.091.625 6.385-.046 9.043-2.138a.495.495 0 00.189-.39v-2.831c0-.415-.207-.794-.575-1.027l-3.867-2.176c.846-1.073 1.476-2.602 1.586-3.913.321-2.256-1.519-4.646-4.166-4.646a4.208 4.208 0 00-2.947 1.227c-.027.027-.058.049-.084.077-.024.025-.043.054-.067.08l-.044.053C19.316.852 17.862 0 16.148 0c-.167 0-.329.011-.491.028-.01-.001-.019-.006-.029-.006-.092 0-.287.025-.391.055-.015.004-.027.015-.041.021a4.498 4.498 0 00-3.002 2.135l-.011.021A4.17 4.17 0 009.014.797h-.01.001c-3.908 0-5.642 4.612-2.557 8.581l-3.903 2.167a1.19 1.19 0 00-.553 1.014zm19.004 4.27c-.084.041-.167.085-.251.123l-.002.001a10.84 10.84 0 01-4.596 1.006h-.033.002-.025c-2.509 0-4.823-.837-6.677-2.248l.027.02v-2.87c0-.097.047-.184.102-.221l4.542-2.525c.565.48 1.287.832 2.035.832.72 0 1.499-.357 2.052-.843l4.487 2.52a.277.277 0 01.131.237v2.87c-.52.395-1.108.76-1.729 1.069l-.064.029zm8.157-4.447a.202.202 0 01.092.169v2.595a9.988 9.988 0 01-6.737 1.98c.418-.265.771-.515 1.111-.782l-.028.022a.496.496 0 00.19-.39V12.86c0-.435-.219-.835-.61-1.087l-2.384-1.339.58-.321c.703.573 1.307.744 1.848.744.663 0 1.36-.325 1.878-.759l4.06 2.284zM23.216 1.788c1.381 0 2.593.902 3.021 2.142a3.698 3.698 0 01-2.235-1.14L24 2.788a.497.497 0 00-.787.082l-.001.002a3.695 3.695 0 01-2.526 1.757l-.022.003v-.003l.001-.084c0-.201-.012-.398-.036-.593l.002.023-.007-.066a5.316 5.316 0 00-.13-.647l.009.038c.563-.902 1.609-1.513 2.713-1.513zm-2.66 3.855a4.652 4.652 0 003.157-1.751l.008-.01a4.684 4.684 0 002.701 1.056c-.007 1.792-1.471 4.927-3.206 4.927-1.337 0-2.479-1.912-2.905-3.238.109-.341.187-.669.245-.983zm.101 3.73l-.886.491-.894-.503c.331-.413.635-.893.896-1.413.25.527.551 1.01.884 1.425zM19.32 6.465c-.478 1.427-1.705 3.49-3.2 3.49-1.741 0-3.225-2.864-3.508-4.696.075-.019 2.429.127 4.049-2.001.823.688 1.932 1.143 3.011 1.188.013.647-.144 1.407-.352 2.019zM16.149.991c2.78 0 3.309 2.393 3.353 2.443a4.124 4.124 0 01-2.561-1.274l-.002-.002a.494.494 0 00-.788.085l-.001.002a4.08 4.08 0 01-3.52 2.022h-.063.003c.136-1.822 1.596-3.274 3.58-3.274zm-3.688 6.947c.257.515.563 1.007.913 1.439l-.875.487-.907-.51c.343-.439.635-.929.869-1.415zm-3.455-6.15c1.125 0 2.155.571 2.729 1.514-.029.1-.107.498-.117.548a3.685 3.685 0 01-1.819-1.061l-.002-.002a.494.494 0 00-.787.085l-.001.002a3.717 3.717 0 01-3.177 1.815h-.001c.158-1.627 1.518-2.9 3.174-2.9zm-3.13 3.889a4.699 4.699 0 003.635-1.786l.007-.01c.57.468 1.264.806 2.026.956l.029.005c.029.575.179 1.273.35 1.789-.273.84-.799 1.84-1.451 2.505l-.013.01c-.408.43-.988.719-1.444.719-1.594 0-2.841-2.508-3.14-4.188zm-2.891 6.881c0-.075.033-.139.067-.162l4.116-2.284c.247.206.304.229.353.265.485.323.929.483 1.534.483.645 0 1.233-.273 1.749-.694.029-.023.06-.045.088-.068l.587.33-2.447 1.361a1.271 1.271 0 00-.584 1.069V15.976c0 .152.07.295.19.389.317.249.727.539 1.083.761a10.018 10.018 0 01-6.737-1.98v-2.587z"/><path d="M31.259 20.781a2.042 2.042 0 00-1.102-.319c-.329 0-.641.077-.917.215l.012-.005-6.12 2.957a2.11 2.11 0 00-2.106-2.071l-3.51.001c-1.73-1.504-3.941-2.425-5.952-2.473-1.983-.047-3.762-.06-4.592-.064V18.02H0v11.517h6.972v-1.379c1.911 1.098 6.939 3.845 9.325 3.845.053 0 .107-.001.157-.005 4.196-.235 14.091-7.198 14.743-7.66a2.083 2.083 0 001.034-1.796v-.006a2.06 2.06 0 00-.965-1.747l-.009-.005zM5.98 28.543H.992V19.01H5.98v9.533zm24.707-5.058a.385.385 0 00-.045.028l.001-.001c-.103.073-10.281 7.271-14.245 7.493a2.179 2.179 0 01-.12.003c-2.093 0-7.195-2.753-9.307-4.001V20.01c.827.003 2.596.017 4.569.063 1.837.045 3.876.921 5.455 2.346l.141.128 3.888-.001a1.119 1.119 0 010 2.238h-7.142v.991h7.142a2.1 2.1 0 001.673-.839l6.984-3.373a1.052 1.052 0 011.053.06l-.004-.003c.323.202.508.537.508.918a1.087 1.087 0 01-.548.943l-.005.003zM16.611 12.159h-.991v.92h.991v-.92zm0 1.833h-.991v.92h.991v-.92zm0 1.835h-.991v.919h.991v-.92z"/></symbol><symbol id="icon-man" viewBox="0 0 27 32"><path d="M-.105 31.754H27.25c.136-3.12-.088-8.296-2.006-10.759l-.069-.088-4.191-2.104c.091-.307.136-.588.154-.795a1.473 1.473 0 00-.102-.692c-.691-1.654-2.154-2.525-2.959-2.896a5.128 5.128 0 00.479-1.567c.466-.134.823-.5.94-.962l.002-.009.49-1.988a1.336 1.336 0 00-.158-1.029l.003.006a1.35 1.35 0 00-.297-.339l-.002-.002c1.379-3.133-.931-6.087-1.057-6.243C15.976-.417 12.815.089 12.648.119c-4.561.955-6.321 4.45-5.327 8.549a1.34 1.34 0 00-.307 1.235l-.002-.009.492 1.99c.119.478.483.837.935.967a5.114 5.114 0 001.183 2.621l-.006-.007v1.575c-6.546 3.352-2.398 1.213-7.644 3.867-.01.049-2.461 2.654-2.097 10.374l.022.472zm26.404-.99h-4.502v-1.891l2.977-6.817c1.492 2.476 1.547 7.203 1.524 8.708zm-6.144-12.841c-.174 1.996-1.268 1.393-1.944 2.93-.531-.584-.691-1.285-.548-2.035.258-1.377-.583-1.786-.374-3.233l.031-.033v-.005c.018-.02.184-.218.232-.28 1.781.776 2.639 2.22 2.604 2.655zM10.6 16.354a5.03 5.03 0 002.903.913 5.043 5.043 0 002.808-.848l-.019.012c.114 1.137.558 1.365.401 2.203a3.52 3.52 0 00-.054.449v.01l-3.067 3.455-3.92-4.419.946-.494v-1.281zm-1.233-4.228V6.843c.477-.882 1.127-1.522 1.936-1.906 2.165 1.226 4.657 3.054 6.329 4.894-.002 2.343.007 2.349-.009 2.542l-.001.012c-.131 2.128-1.88 3.892-4.124 3.892-2.181 0-3.992-1.712-4.123-3.913a2.831 2.831 0 01-.008-.215v-.025.001zm-.611 6.482l4.816 5.429 3.234-3.645c.074.213.177.414.296.608l-3.53 4.415-5.263-6.583.447-.225zm9.862-7.279v-1.53l.368-.422c.02.775.104-.139-.368 1.952zm-5.789-10.24c.196.012 2.824-.4 4.901 1.843.082.102 1.773 2.281 1.093 4.665-.233-1.061-.638-2.42-1.279-3.068l-.7.697c.633.64 1.048 2.591 1.206 3.602-2.9-3.035-6.642-4.957-6.694-4.989-.187.116-1.771.417-2.921 2.653l-.054.106V8.24l-.146.001c-.731-3.528.669-6.331 4.593-7.153zM8.132 9.261l.248 1.008v1.06l-.413-1.675c-.061-.249.124-.344.165-.394zm-.725 10.023l6.166 7.711 4.172-5.218c.454.406.672.464 1.634.959l-.324-1.101c-.082-.279.244-.728.441-.933a3.008 3.008 0 001.073-.987l.007-.011 3.404 1.709-3.168 7.251v2.099H6.335v-2.099l-3.169-7.25 4.242-2.13zm-5.038 2.774l2.978 6.815v1.891H.845c-.022-1.505.033-6.23 1.524-8.706z"/></symbol><symbol id="icon-audio" viewBox="0 0 37 32"><path d="M2.381 29.453h12.23a3.743 3.743 0 003.367 2.115h.801a3.737 3.737 0 003.356-2.093l.01-.022h12.237a2.288 2.288 0 002.286-2.286V5.262a2.288 2.288 0 00-2.286-2.285h-1.234V1.956A1.525 1.525 0 0031.624.433H5.133a1.525 1.525 0 00-1.524 1.523v1.021H2.382A2.289 2.289 0 00.095 5.262v21.905a2.288 2.288 0 002.287 2.286zm29.24-4.702H19.144V7.046c2.885.377 5.121 2.845 5.121 5.831v.687l-.181-.04a.763.763 0 00-.907.575l-.001.005-1.213 5.52a.762.762 0 00.575.906l.005.001 2.621.578a1.944 1.944 0 002.318-1.492l.702-3.191a1.953 1.953 0 00-1.472-2.322l-.013-.003-.912-.201v-1.023c0-3.827-2.917-6.987-6.645-7.371V1.955h12.48l-.001 22.796zM24.5 15.177l1.871.412a.422.422 0 01.325.508l-.702 3.191a.45.45 0 01-.507.331l-1.873-.413.886-4.029zM5.132 1.955h12.487v3.551c-3.731.38-6.651 3.541-6.651 7.371v1.022l-.913.202a1.945 1.945 0 00-1.218.846l-.005.008a1.91 1.91 0 00-.257 1.482l-.003-.013.7 3.189a1.961 1.961 0 002.338 1.493l-.013.002 2.61-.577a.764.764 0 00.58-.912l.001.005-1.213-5.519a.76.76 0 00-.914-.579l.005-.001-.174.038v-.685c0-2.988 2.24-5.458 5.128-5.832v17.707H5.132V1.955zm7.117 13.222l.887 4.029-1.863.411a.432.432 0 01-.511-.325l-.001-.003-.702-3.196a.42.42 0 01.056-.321l-.001.002a.429.429 0 01.265-.186l.003-.001 1.867-.412zM1.619 5.262c0-.42.341-.762.761-.762h1.227v20.251a1.525 1.525 0 001.525 1.524h26.491a1.525 1.525 0 001.524-1.523V4.5h1.234c.421 0 .762.342.762.762v21.905c0 .42-.341.762-.762.762H21.627a.763.763 0 00-.729.539 2.226 2.226 0 01-2.126 1.577h-.785a2.23 2.23 0 01-2.13-1.571l-.004-.016a.762.762 0 00-.725-.529H2.381a.762.762 0 01-.762-.762V5.262z"/></symbol><symbol id="icon-ellipse" viewBox="0 0 32 32"><path d="M16 32C7.163 32 0 24.837 0 16S7.163 0 16 0s16 7.163 16 16-7.163 16-16 16z"/></symbol><symbol id="icon-check" viewBox="0 0 41 32"><path d="M34.457 1.513c-1.486.663-2.907 1.477-4.265 2.379-2.731 1.797-5.227 3.936-7.57 6.217a84.919 84.919 0 00-6.455 7.124l-.125.16-2.823 3.467L3.624 6.481.001 16.522l12.978 15.477c1.257-2.551 2.471-5.07 3.662-7.257.297-.558.606-1.081.901-1.614 0 0 1.522-2.674 1.925-3.351a80.284 80.284 0 015.381-8.016l-.144.196c1.909-2.491 3.984-4.869 6.336-6.962a28.433 28.433 0 013.749-2.871A20.523 20.523 0 0138.91.045l.145-.047a21.164 21.164 0 00-4.722 1.568l.13-.055z"/></symbol><symbol id="icon-arrow-left" viewBox="0 0 54 32"><path d="M52 14a2 2 0 110 4v-4zM.586 17.414C.224 17.052 0 16.552 0 16s.224-1.052.586-1.414L13.314 1.858a2 2 0 012.825 2.829l.001-.001L4.828 16l11.314 11.314a2 2 0 11-2.827 2.829l-.001-.001L.586 17.414zM52 18H2v-4h50v4z"/></symbol><symbol id="icon-arrow-right" viewBox="0 0 54 32"><path d="M2 14a2 2 0 100 4v-4zm51.414 3.414c.362-.362.586-.862.586-1.414s-.224-1.052-.586-1.414L40.686 1.858a2 2 0 10-2.829 2.827l.001.001L49.172 16 37.858 27.314a2 2 0 002.829 2.827l-.001.001 12.728-12.728zM2 18h50v-4H2v4z"/></symbol><symbol id="icon-phone" viewBox="0 0 32 32"><path d="M4.657.003a2.001 2.001 0 00-1.391.649l-.001.001L.67 3.506c.003-.009-.011-.008-.084.096a.623.623 0 00-.089.172l-.001.004C-.56 7.142.149 10.843 1.873 14.362c1.724 3.52 4.475 6.888 7.633 9.652 3.157 2.764 6.72 4.925 10.119 5.999 3.397 1.072 6.692 1.057 9.133-.713a.687.687 0 00.075-.065c.063-.064.067-.072.055-.061l.011-.013 2.581-2.84c.322-.357.52-.832.52-1.353 0-.588-.251-1.117-.652-1.486l-6.127-5.572a2.015 2.015 0 00-1.353-.52c-.588 0-1.117.251-1.486.652l-2.773 3.049c-2.249-.652-4.173-1.756-6.023-3.439-1.851-1.683-3.133-3.493-3.993-5.673l2.771-3.048c.322-.357.52-.832.52-1.353 0-.588-.251-1.117-.652-1.486L6.107.52A2 2 0 004.653.003h.005zm.058 1.249l.03-.001c.198 0 .378.077.512.202l6.125 5.573a.735.735 0 01.051 1.06l-3.064 3.365a.626.626 0 00-.122.643l-.001-.004c.929 2.537 2.429 4.617 4.493 6.495 2.063 1.877 4.275 3.173 6.888 3.86a.63.63 0 00.626-.187v-.001l3.063-3.367a.732.732 0 011.061-.049l6.127 5.572a.732.732 0 01.049 1.061l-2.561 2.813c-2.004 1.44-4.827 1.52-7.987.523-3.173-1.003-6.617-3.077-9.667-5.745-3.048-2.667-5.7-5.925-7.331-9.253-1.613-3.293-2.2-6.624-1.312-9.56l2.501-2.749a.751.751 0 01.518-.251h.002z"/></symbol></defs></svg>